<svg xmlns="http://www.w3.org/2000/svg" xmlns:xlink="http://www.w3.org/1999/xlink" contentStyleType="text/css" data-diagram-type="ACTIVITY" height="933px" preserveAspectRatio="none" style="width:702px;height:933px;background:#FFFFFF;" version="1.1" viewBox="0 0 702 933" width="702px" zoomAndPan="magnify"><?plantuml 1.2026.3beta6?><defs/><g><g class="title" data-source-line="1"><text fill="#000000" font-family="sans-serif" font-size="14" font-weight="700" lengthAdjust="spacing" textLength="303.748" x="198.5723" y="32.9951">Aktivitetsdiagram - Boka tr&#228;ningspass</text></g><ellipse cx="406.8787" cy="62.2969" fill="#222222" rx="10" ry="10" style="stroke:#222222;stroke-width:1;"/><rect fill="none" height="82.2656" style="stroke:#000000;stroke-width:1.5;" width="162.9121" x="325.4226" y="82.2969"/><path d="M393.0085,82.2969 L393.0085,91.5938 L383.0085,101.5938 L325.4226,101.5938" fill="none" style="stroke:#000000;stroke-width:1.5;"/><text fill="#000000" font-family="sans-serif" font-size="14" lengthAdjust="spacing" textLength="57.5859" x="328.4226" y="96.292">Member</text><rect fill="#F1F1F1" height="33.9688" rx="12.5" ry="12.5" style="stroke:#181818;stroke-width:0.5;" width="142.9121" x="335.4226" y="118.5938"/><text fill="#000000" font-family="sans-serif" font-size="12" lengthAdjust="spacing" textLength="122.9121" x="345.4226" y="139.7324">Click "Book Session"</text><rect fill="none" height="136.2344" style="stroke:#000000;stroke-width:1.5;" width="261.1504" x="276.3035" y="174.5625"/><path d="M408.0105,174.5625 L408.0105,183.8594 L398.0105,193.8594 L276.3035,193.8594" fill="none" style="stroke:#000000;stroke-width:1.5;"/><text fill="#000000" font-family="sans-serif" font-size="14" lengthAdjust="spacing" textLength="121.707" x="279.3035" y="188.5576">Application Layer</text><rect fill="#F1F1F1" height="33.9688" rx="12.5" ry="12.5" style="stroke:#181818;stroke-width:0.5;" width="208.7832" x="302.4871" y="210.8594"/><text fill="#000000" font-family="sans-serif" font-size="12" lengthAdjust="spacing" textLength="188.7832" x="312.4871" y="231.998">Fetch avalible TrainingSessions</text><rect fill="#F1F1F1" height="33.9688" rx="12.5" ry="12.5" style="stroke:#181818;stroke-width:0.5;" width="241.1504" x="286.3035" y="264.8281"/><text fill="#000000" font-family="sans-serif" font-size="12" lengthAdjust="spacing" textLength="221.1504" x="296.3035" y="285.9668">View list of avalible TrainingSessions</text><rect fill="none" height="82.2656" style="stroke:#000000;stroke-width:1.5;" width="183.0156" x="315.3708" y="320.7969"/><path d="M382.9568,320.7969 L382.9568,330.0938 L372.9568,340.0938 L315.3708,340.0938" fill="none" style="stroke:#000000;stroke-width:1.5;"/><text fill="#000000" font-family="sans-serif" font-size="14" lengthAdjust="spacing" textLength="57.5859" x="318.3708" y="334.792">Member</text><rect fill="#F1F1F1" height="33.9688" rx="12.5" ry="12.5" style="stroke:#181818;stroke-width:0.5;" width="163.0156" x="325.3708" y="357.0938"/><text fill="#000000" font-family="sans-serif" font-size="12" lengthAdjust="spacing" textLength="143.0156" x="335.3708" y="378.2324">Choose TrainingSession</text><rect fill="none" height="82.2656" style="stroke:#000000;stroke-width:1.5;" width="141.707" x="336.0251" y="413.8643"/><path d="M467.7322,413.8643 L467.7322,423.1611 L457.7322,433.1611 L336.0251,433.1611" fill="none" style="stroke:#000000;stroke-width:1.5;"/><text fill="#000000" font-family="sans-serif" font-size="14" lengthAdjust="spacing" textLength="121.707" x="339.0251" y="427.8594">Application Layer</text><rect fill="#F1F1F1" height="33.9688" rx="12.5" ry="12.5" style="stroke:#181818;stroke-width:0.5;" width="120.9102" x="346.4236" y="450.1611"/><text fill="#000000" font-family="sans-serif" font-size="12" lengthAdjust="spacing" textLength="100.9102" x="356.4236" y="471.2998">Validate booking</text><rect fill="none" height="219.2344" style="stroke:#000000;stroke-width:1.5;" width="666.8926" x="16" y="506.1299"/><path d="M123.8086,506.1299 L123.8086,515.4268 L113.8086,525.4268 L16,525.4268" fill="none" style="stroke:#000000;stroke-width:1.5;"/><text fill="#000000" font-family="sans-serif" font-size="14" lengthAdjust="spacing" textLength="97.8086" x="19" y="520.125">Domain Layer</text><polygon fill="#F1F1F1" points="348.1968,542.4268,465.5605,542.4268,477.5605,554.4268,465.5605,566.4268,348.1968,566.4268,336.1968,554.4268,348.1968,542.4268" style="stroke:#181818;stroke-width:0.5;"/><text fill="#000000" font-family="sans-serif" font-size="11" lengthAdjust="spacing" textLength="117.3638" x="348.1968" y="558.2349">Is membership valid?</text><text fill="#000000" font-family="sans-serif" font-size="11" lengthAdjust="spacing" textLength="19.2178" x="316.979" y="551.8325">Yes</text><text fill="#000000" font-family="sans-serif" font-size="11" lengthAdjust="spacing" textLength="14.9585" x="477.5605" y="551.8325">No</text><polygon fill="#F1F1F1" points="164.8167,576.4268,301.4949,576.4268,313.4949,588.4268,301.4949,600.4268,164.8167,600.4268,152.8167,588.4268,164.8167,576.4268" style="stroke:#181818;stroke-width:0.5;"/><text fill="#000000" font-family="sans-serif" font-size="11" lengthAdjust="spacing" textLength="136.6782" x="164.8167" y="592.2349">Are there avalible seats?</text><text fill="#000000" font-family="sans-serif" font-size="11" lengthAdjust="spacing" textLength="19.2178" x="133.5989" y="585.8325">Yes</text><text fill="#000000" font-family="sans-serif" font-size="11" lengthAdjust="spacing" textLength="14.9585" x="313.4949" y="585.8325">No</text><rect fill="#F1F1F1" height="33.9688" rx="12.5" ry="12.5" style="stroke:#181818;stroke-width:0.5;" width="111.7578" x="64.1992" y="610.4268"/><text fill="#000000" font-family="sans-serif" font-size="12" lengthAdjust="spacing" textLength="91.7578" x="74.1992" y="631.5654">Create booking</text><rect fill="#F1F1F1" height="33.9688" rx="12.5" ry="12.5" style="stroke:#181818;stroke-width:0.5;" width="184.1563" x="28" y="679.3955"/><text fill="#000000" font-family="sans-serif" font-size="12" lengthAdjust="spacing" textLength="164.1563" x="38" y="700.5342">Update avalible seats by -1</text><rect fill="#F1F1F1" height="33.9688" rx="12.5" ry="12.5" style="stroke:#181818;stroke-width:0.5;" width="228.1543" x="232.1563" y="610.4268"/><text fill="#000000" font-family="sans-serif" font-size="12" lengthAdjust="spacing" textLength="208.1543" x="242.1563" y="631.5654">Cancel booking (No avalible seats)</text><ellipse cx="346.2334" cy="690.3955" fill="none" rx="11" ry="11" style="stroke:#222222;stroke-width:1;"/><ellipse cx="346.2334" cy="690.3955" fill="#222222" rx="6" ry="6" style="stroke:#222222;stroke-width:1;"/><rect fill="#F1F1F1" height="33.9688" rx="12.5" ry="12.5" style="stroke:#181818;stroke-width:0.5;" width="180.582" x="490.3105" y="576.4268"/><text fill="#000000" font-family="sans-serif" font-size="12" lengthAdjust="spacing" textLength="160.582" x="500.3105" y="597.5654">Cancel (Not valid Member)</text><ellipse cx="580.6016" cy="656.3955" fill="none" rx="11" ry="11" style="stroke:#222222;stroke-width:1;"/><ellipse cx="580.6016" cy="656.3955" fill="#222222" rx="6" ry="6" style="stroke:#222222;stroke-width:1;"/><rect fill="none" height="136.2344" style="stroke:#000000;stroke-width:1.5;" width="200.2422" x="306.7576" y="735.3643"/><path d="M438.4646,735.3643 L438.4646,744.6611 L428.4646,754.6611 L306.7576,754.6611" fill="none" style="stroke:#000000;stroke-width:1.5;"/><text fill="#000000" font-family="sans-serif" font-size="14" lengthAdjust="spacing" textLength="121.707" x="309.7576" y="749.3594">Application Layer</text><rect fill="#F1F1F1" height="33.9688" rx="12.5" ry="12.5" style="stroke:#181818;stroke-width:0.5;" width="101.0762" x="356.3406" y="771.6611"/><text fill="#000000" font-family="sans-serif" font-size="12" lengthAdjust="spacing" textLength="81.0762" x="366.3406" y="792.7998">Save booking</text><rect fill="#F1F1F1" height="33.9688" rx="12.5" ry="12.5" style="stroke:#181818;stroke-width:0.5;" width="180.2422" x="316.7576" y="825.6299"/><text fill="#000000" font-family="sans-serif" font-size="12" lengthAdjust="spacing" textLength="160.2422" x="326.7576" y="846.7686">View booking confirmation</text><ellipse cx="406.8787" cy="902.5986" fill="none" rx="11" ry="11" style="stroke:#222222;stroke-width:1;"/><ellipse cx="406.8787" cy="902.5986" fill="#222222" rx="6" ry="6" style="stroke:#222222;stroke-width:1;"/><line style="stroke:#181818;stroke-width:1;" x1="406.8787" x2="406.8787" y1="72.2969" y2="118.5938"/><polygon fill="#181818" points="402.8787,108.5938,406.8787,118.5938,410.8787,108.5938,406.8787,112.5938" style="stroke:#181818;stroke-width:1;"/><line style="stroke:#181818;stroke-width:1;" x1="406.8787" x2="406.8787" y1="244.8281" y2="264.8281"/><polygon fill="#181818" points="402.8787,254.8281,406.8787,264.8281,410.8787,254.8281,406.8787,258.8281" style="stroke:#181818;stroke-width:1;"/><line style="stroke:#181818;stroke-width:1;" x1="406.8787" x2="406.8787" y1="152.5625" y2="210.8594"/><polygon fill="#181818" points="402.8787,200.8594,406.8787,210.8594,410.8787,200.8594,406.8787,204.8594" style="stroke:#181818;stroke-width:1;"/><line style="stroke:#181818;stroke-width:1;" x1="406.8787" x2="406.8787" y1="298.7969" y2="357.0938"/><polygon fill="#181818" points="402.8787,347.0938,406.8787,357.0938,410.8787,347.0938,406.8787,351.0938" style="stroke:#181818;stroke-width:1;"/><line style="stroke:#181818;stroke-width:1;" x1="406.8787" x2="406.8787" y1="391.0625" y2="450.1611"/><polygon fill="#181818" points="402.8787,440.1611,406.8787,450.1611,410.8787,440.1611,406.8787,444.1611" style="stroke:#181818;stroke-width:1;"/><line style="stroke:#181818;stroke-width:1;" x1="120.0781" x2="120.0781" y1="644.3955" y2="679.3955"/><polygon fill="#181818" points="116.0781,669.3955,120.0781,679.3955,124.0781,669.3955,120.0781,673.3955" style="stroke:#181818;stroke-width:1;"/><line style="stroke:#181818;stroke-width:1;" x1="346.2334" x2="346.2334" y1="644.3955" y2="679.3955"/><polygon fill="#181818" points="342.2334,669.3955,346.2334,679.3955,350.2334,669.3955,346.2334,673.3955" style="stroke:#181818;stroke-width:1;"/><line style="stroke:#181818;stroke-width:1;" x1="152.8167" x2="120.0781" y1="588.4268" y2="588.4268"/><line style="stroke:#181818;stroke-width:1;" x1="120.0781" x2="120.0781" y1="588.4268" y2="610.4268"/><polygon fill="#181818" points="116.0781,600.4268,120.0781,610.4268,124.0781,600.4268,120.0781,604.4268" style="stroke:#181818;stroke-width:1;"/><line style="stroke:#181818;stroke-width:1;" x1="313.4949" x2="346.2334" y1="588.4268" y2="588.4268"/><line style="stroke:#181818;stroke-width:1;" x1="346.2334" x2="346.2334" y1="588.4268" y2="610.4268"/><polygon fill="#181818" points="342.2334,600.4268,346.2334,610.4268,350.2334,600.4268,346.2334,604.4268" style="stroke:#181818;stroke-width:1;"/><line style="stroke:#181818;stroke-width:1;" x1="120.0781" x2="120.0781" y1="713.3643" y2="718.3643"/><line style="stroke:#181818;stroke-width:1;" x1="120.0781" x2="406.8787" y1="718.3643" y2="718.3643"/><line style="stroke:#181818;stroke-width:1;" x1="406.8787" x2="406.8787" y1="718.3643" y2="771.6611"/><polygon fill="#181818" points="402.8787,761.6611,406.8787,771.6611,410.8787,761.6611,406.8787,765.6611" style="stroke:#181818;stroke-width:1;"/><line style="stroke:#181818;stroke-width:1;" x1="580.6016" x2="580.6016" y1="610.3955" y2="645.3955"/><polygon fill="#181818" points="576.6016,635.3955,580.6016,645.3955,584.6016,635.3955,580.6016,639.3955" style="stroke:#181818;stroke-width:1;"/><line style="stroke:#181818;stroke-width:1;" x1="336.1968" x2="233.1558" y1="554.4268" y2="554.4268"/><line style="stroke:#181818;stroke-width:1;" x1="233.1558" x2="233.1558" y1="554.4268" y2="576.4268"/><polygon fill="#181818" points="229.1558,566.4268,233.1558,576.4268,237.1558,566.4268,233.1558,570.4268" style="stroke:#181818;stroke-width:1;"/><line style="stroke:#181818;stroke-width:1;" x1="477.5605" x2="580.6016" y1="554.4268" y2="554.4268"/><line style="stroke:#181818;stroke-width:1;" x1="580.6016" x2="580.6016" y1="554.4268" y2="576.4268"/><polygon fill="#181818" points="576.6016,566.4268,580.6016,576.4268,584.6016,566.4268,580.6016,570.4268" style="stroke:#181818;stroke-width:1;"/><line style="stroke:#181818;stroke-width:1;" x1="406.8787" x2="406.8787" y1="484.1299" y2="542.4268"/><polygon fill="#181818" points="402.8787,532.4268,406.8787,542.4268,410.8787,532.4268,406.8787,536.4268" style="stroke:#181818;stroke-width:1;"/><line style="stroke:#181818;stroke-width:1;" x1="406.8787" x2="406.8787" y1="805.6299" y2="825.6299"/><polygon fill="#181818" points="402.8787,815.6299,406.8787,825.6299,410.8787,815.6299,406.8787,819.6299" style="stroke:#181818;stroke-width:1;"/><line style="stroke:#181818;stroke-width:1;" x1="406.8787" x2="406.8787" y1="859.5986" y2="891.5986"/><polygon fill="#181818" points="402.8787,881.5986,406.8787,891.5986,410.8787,881.5986,406.8787,885.5986" style="stroke:#181818;stroke-width:1;"/><?plantuml-src ZPB1IiD048Rl-nH3JkcX1w_s8AqY2EgbMl2uIIRDa6HtsHagHVeslealvYQRLDD2wMKXa__xv_yt4P86OLaBxKXGk22zzRg5EQnihK7ypxSXisMdcPLYqLwKSk4a8MiWUS4sGv_0bmAulMyeho5PMLl36fc38bcemmHOEXTKkdzurliZ-uYILw1tkg4i97hpchh5WmqlEis6y1CQOW5RNf8UBaIihEKpvjgGcx2oq8AGXOe1F-KUR1jy_oDKGlh4qFOPk287NUpYRWPIeO7q0taMP56uzDYDmtainwY5pzLT4u-J9CFutVK1fmQGxM5-4pNOXFxfg_qpqYR7PZJgNftGiz6SnRheOGegrQdNw1G64cj2lFl1OC0ZVDs5h_LkKZ7-0cFKt9gIVDjZ_QVeDlm2?></g></svg>