<svg xmlns="http://www.w3.org/2000/svg" xmlns:xlink="http://www.w3.org/1999/xlink" contentStyleType="text/css" data-diagram-type="SEQUENCE" height="1114px" preserveAspectRatio="none" style="width:1136px;height:1114px;background:#FFFFFF;" version="1.1" viewBox="0 0 1136 1114" width="1136px" zoomAndPan="magnify"><?plantuml 1.2026.3beta6?><defs/><g><g class="title" data-source-line="1"><text fill="#000000" font-family="sans-serif" font-size="14" font-weight="700" lengthAdjust="spacing" textLength="149.0439" x="490.2825" y="27.9951">Boka Tr&#228;ningspass</text></g><rect fill="none" height="46.2656" style="stroke:#000000;stroke-width:1.5;" width="262.6479" x="20" y="206.8594"/><rect fill="none" height="660.5313" style="stroke:#000000;stroke-width:1.5;" width="1110.6089" x="10" y="354.5234"/><rect fill="none" height="148.4688" style="stroke:#000000;stroke-width:1.5;" width="589.8325" x="20" y="859.5859"/><g class="participant-lifeline" data-entity-uid="part1" data-qualified-name="Client" data-source-line="3" id="part1-lifeline"><g><title>Client</title><rect fill="#000000" fill-opacity="0.00000" height="913.4609" width="8" x="49.2651" y="118.5938"/><line style="stroke:#181818;stroke-width:0.5;stroke-dasharray:5,5;" x1="53" x2="53" y1="118.5938" y2="1032.0547"/></g></g><g class="participant-lifeline" data-entity-uid="part2" data-qualified-name="Controller" data-source-line="5" id="part2-lifeline"><g><title>BookingController</title><rect fill="#000000" fill-opacity="0.00000" height="913.4609" width="8" x="198.8154" y="118.5938"/><line style="stroke:#181818;stroke-width:0.5;stroke-dasharray:5,5;" x1="201.9829" x2="201.9829" y1="118.5938" y2="1032.0547"/></g></g><g class="participant-lifeline" data-entity-uid="part3" data-qualified-name="Factory" data-source-line="6" id="part3-lifeline"><g><title>InputFactory</title><rect fill="#000000" fill-opacity="0.00000" height="913.4609" width="8" x="412.2612" y="118.5938"/><line style="stroke:#181818;stroke-width:0.5;stroke-dasharray:5,5;" x1="415.9233" x2="415.9233" y1="118.5938" y2="1032.0547"/></g></g><g class="participant-lifeline" data-entity-uid="part4" data-qualified-name="Service" data-source-line="7" id="part4-lifeline"><g><title>BookingService</title><rect fill="#000000" fill-opacity="0.00000" height="913.4609" width="8" x="534.7158" y="118.5938"/><line style="stroke:#181818;stroke-width:0.5;stroke-dasharray:5,5;" x1="538.5991" x2="538.5991" y1="118.5938" y2="1032.0547"/></g></g><g class="participant-lifeline" data-entity-uid="part5" data-qualified-name="Domain" data-source-line="8" id="part5-lifeline"><g><title>TrainingSession .Domain.</title><rect fill="#000000" fill-opacity="0.00000" height="913.4609" width="8" x="703.0396" y="118.5938"/><line style="stroke:#181818;stroke-width:0.5;stroke-dasharray:5,5;" x1="706.8325" x2="706.8325" y1="118.5938" y2="1032.0547"/></g></g><g class="participant-lifeline" data-entity-uid="part6" data-qualified-name="Repo" data-source-line="9" id="part6-lifeline"><g><title>TrainingSessionRepository</title><rect fill="#000000" fill-opacity="0.00000" height="913.4609" width="8" x="910.1401" y="118.5938"/><line style="stroke:#181818;stroke-width:0.5;stroke-dasharray:5,5;" x1="913.2466" x2="913.2466" y1="118.5938" y2="1032.0547"/></g></g><g class="participant-lifeline" data-entity-uid="part7" data-qualified-name="DB" data-source-line="10" id="part7-lifeline"><g><title>Persistence</title><rect fill="#000000" fill-opacity="0.00000" height="913.4609" width="8" x="1063.3213" y="118.5938"/><line style="stroke:#181818;stroke-width:0.5;stroke-dasharray:5,5;" x1="1067.0337" x2="1067.0337" y1="118.5938" y2="1032.0547"/></g></g><g class="participant participant-head" data-entity-uid="part1" data-qualified-name="Client" data-source-line="3" id="part1-head"><text fill="#000000" font-family="sans-serif" font-size="14" lengthAdjust="spacing" textLength="40.5303" x="30" y="115.292">Client</text><ellipse cx="53.2651" cy="50.7969" fill="#E2E2F0" rx="8" ry="8" style="stroke:#181818;stroke-width:0.5;"/><path d="M53.2651,58.7969 L53.2651,85.7969 M40.2651,66.7969 L66.2651,66.7969 M53.2651,85.7969 L40.2651,100.7969 M53.2651,85.7969 L66.2651,100.7969" fill="none" style="stroke:#181818;stroke-width:0.5;"/></g><g class="participant participant-tail" data-entity-uid="part1" data-qualified-name="Client" data-source-line="3" id="part1-tail"><text fill="#000000" font-family="sans-serif" font-size="14" lengthAdjust="spacing" textLength="40.5303" x="30" y="1044.0498">Client</text><ellipse cx="53.2651" cy="1055.8516" fill="#E2E2F0" rx="8" ry="8" style="stroke:#181818;stroke-width:0.5;"/><path d="M53.2651,1063.8516 L53.2651,1090.8516 M40.2651,1071.8516 L66.2651,1071.8516 M53.2651,1090.8516 L40.2651,1105.8516 M53.2651,1090.8516 L66.2651,1105.8516" fill="none" style="stroke:#181818;stroke-width:0.5;"/></g><g class="participant participant-head" data-entity-uid="part2" data-qualified-name="Controller" data-source-line="5" id="part2-head"><rect fill="#E2E2F0" height="30.2969" rx="2.5" ry="2.5" style="stroke:#181818;stroke-width:0.5;" width="139.665" x="132.9829" y="87.2969"/><text fill="#000000" font-family="sans-serif" font-size="14" lengthAdjust="spacing" textLength="125.665" x="139.9829" y="107.292">BookingController</text></g><g class="participant participant-tail" data-entity-uid="part2" data-qualified-name="Controller" data-source-line="5" id="part2-tail"><rect fill="#E2E2F0" height="30.2969" rx="2.5" ry="2.5" style="stroke:#181818;stroke-width:0.5;" width="139.665" x="132.9829" y="1031.0547"/><text fill="#000000" font-family="sans-serif" font-size="14" lengthAdjust="spacing" textLength="125.665" x="139.9829" y="1051.0498">BookingController</text></g><g class="participant participant-head" data-entity-uid="part3" data-qualified-name="Factory" data-source-line="6" id="part3-head"><rect fill="#E2E2F0" height="30.2969" rx="2.5" ry="2.5" style="stroke:#181818;stroke-width:0.5;" width="102.6758" x="364.9233" y="87.2969"/><text fill="#000000" font-family="sans-serif" font-size="14" lengthAdjust="spacing" textLength="88.6758" x="371.9233" y="107.292">InputFactory</text></g><g class="participant participant-tail" data-entity-uid="part3" data-qualified-name="Factory" data-source-line="6" id="part3-tail"><rect fill="#E2E2F0" height="30.2969" rx="2.5" ry="2.5" style="stroke:#181818;stroke-width:0.5;" width="102.6758" x="364.9233" y="1031.0547"/><text fill="#000000" font-family="sans-serif" font-size="14" lengthAdjust="spacing" textLength="88.6758" x="371.9233" y="1051.0498">InputFactory</text></g><g class="participant participant-head" data-entity-uid="part4" data-qualified-name="Service" data-source-line="7" id="part4-head"><rect fill="#E2E2F0" height="30.2969" rx="2.5" ry="2.5" style="stroke:#181818;stroke-width:0.5;" width="122.2334" x="477.5991" y="87.2969"/><text fill="#000000" font-family="sans-serif" font-size="14" lengthAdjust="spacing" textLength="108.2334" x="484.5991" y="107.292">BookingService</text></g><g class="participant participant-tail" data-entity-uid="part4" data-qualified-name="Service" data-source-line="7" id="part4-tail"><rect fill="#E2E2F0" height="30.2969" rx="2.5" ry="2.5" style="stroke:#181818;stroke-width:0.5;" width="122.2334" x="477.5991" y="1031.0547"/><text fill="#000000" font-family="sans-serif" font-size="14" lengthAdjust="spacing" textLength="108.2334" x="484.5991" y="1051.0498">BookingService</text></g><g class="participant participant-head" data-entity-uid="part5" data-qualified-name="Domain" data-source-line="8" id="part5-head"><rect fill="#E2E2F0" height="30.2969" rx="2.5" ry="2.5" style="stroke:#181818;stroke-width:0.5;" width="194.4141" x="609.8325" y="87.2969"/><text fill="#000000" font-family="sans-serif" font-size="14" lengthAdjust="spacing" textLength="180.4141" x="616.8325" y="107.292">TrainingSession (Domain)</text></g><g class="participant participant-tail" data-entity-uid="part5" data-qualified-name="Domain" data-source-line="8" id="part5-tail"><rect fill="#E2E2F0" height="30.2969" rx="2.5" ry="2.5" style="stroke:#181818;stroke-width:0.5;" width="194.4141" x="609.8325" y="1031.0547"/><text fill="#000000" font-family="sans-serif" font-size="14" lengthAdjust="spacing" textLength="180.4141" x="616.8325" y="1051.0498">TrainingSession (Domain)</text></g><g class="participant participant-head" data-entity-uid="part6" data-qualified-name="Repo" data-source-line="9" id="part6-head"><rect fill="#E2E2F0" height="30.2969" rx="2.5" ry="2.5" style="stroke:#181818;stroke-width:0.5;" width="199.7871" x="814.2466" y="87.2969"/><text fill="#000000" font-family="sans-serif" font-size="14" lengthAdjust="spacing" textLength="185.7871" x="821.2466" y="107.292">TrainingSessionRepository</text></g><g class="participant participant-tail" data-entity-uid="part6" data-qualified-name="Repo" data-source-line="9" id="part6-tail"><rect fill="#E2E2F0" height="30.2969" rx="2.5" ry="2.5" style="stroke:#181818;stroke-width:0.5;" width="199.7871" x="814.2466" y="1031.0547"/><text fill="#000000" font-family="sans-serif" font-size="14" lengthAdjust="spacing" textLength="185.7871" x="821.2466" y="1051.0498">TrainingSessionRepository</text></g><g class="participant participant-head" data-entity-uid="part7" data-qualified-name="DB" data-source-line="10" id="part7-head"><text fill="#000000" font-family="sans-serif" font-size="14" lengthAdjust="spacing" textLength="80.5752" x="1024.0337" y="115.292">Persistence</text><path d="M1049.3213,66.2969 C1049.3213,56.2969 1067.3213,56.2969 1067.3213,56.2969 C1067.3213,56.2969 1085.3213,56.2969 1085.3213,66.2969 L1085.3213,92.2969 C1085.3213,102.2969 1067.3213,102.2969 1067.3213,102.2969 C1067.3213,102.2969 1049.3213,102.2969 1049.3213,92.2969 L1049.3213,66.2969" fill="#E2E2F0" style="stroke:#181818;stroke-width:0.5;"/><path d="M1049.3213,66.2969 C1049.3213,76.2969 1067.3213,76.2969 1067.3213,76.2969 C1067.3213,76.2969 1085.3213,76.2969 1085.3213,66.2969" fill="none" style="stroke:#181818;stroke-width:0.5;"/></g><g class="participant participant-tail" data-entity-uid="part7" data-qualified-name="DB" data-source-line="10" id="part7-tail"><text fill="#000000" font-family="sans-serif" font-size="14" lengthAdjust="spacing" textLength="80.5752" x="1024.0337" y="1044.0498">Persistence</text><path d="M1049.3213,1057.3516 C1049.3213,1047.3516 1067.3213,1047.3516 1067.3213,1047.3516 C1067.3213,1047.3516 1085.3213,1047.3516 1085.3213,1057.3516 L1085.3213,1083.3516 C1085.3213,1093.3516 1067.3213,1093.3516 1067.3213,1093.3516 C1067.3213,1093.3516 1049.3213,1093.3516 1049.3213,1083.3516 L1049.3213,1057.3516" fill="#E2E2F0" style="stroke:#181818;stroke-width:0.5;"/><path d="M1049.3213,1057.3516 C1049.3213,1067.3516 1067.3213,1067.3516 1067.3213,1067.3516 C1067.3213,1067.3516 1085.3213,1067.3516 1085.3213,1057.3516" fill="none" style="stroke:#181818;stroke-width:0.5;"/></g><g class="message" data-entity-1="part1" data-entity-2="part2" data-source-line="12" id="msg1"><polygon fill="#181818" points="190.8154,145.7266,200.8154,149.7266,190.8154,153.7266,194.8154,149.7266" style="stroke:#181818;stroke-width:1;"/><line style="stroke:#181818;stroke-width:1;" x1="53.2651" x2="196.8154" y1="149.7266" y2="149.7266"/><text fill="#000000" font-family="sans-serif" font-size="13" lengthAdjust="spacing" textLength="125.5503" x="60.2651" y="144.6606">POST /api/bookings</text></g><g class="message" data-entity-1="part2" data-entity-2="part2" data-source-line="14" id="msg2"><line style="stroke:#181818;stroke-width:1;" x1="202.8154" x2="244.8154" y1="178.8594" y2="178.8594"/><line style="stroke:#181818;stroke-width:1;" x1="244.8154" x2="244.8154" y1="178.8594" y2="191.8594"/><line style="stroke:#181818;stroke-width:1;" x1="203.8154" x2="244.8154" y1="191.8594" y2="191.8594"/><polygon fill="#181818" points="213.8154,187.8594,203.8154,191.8594,213.8154,195.8594,209.8154,191.8594" style="stroke:#181818;stroke-width:1;"/><text fill="#000000" font-family="sans-serif" font-size="13" lengthAdjust="spacing" textLength="130.9712" x="209.8154" y="173.7935">Validate ModelState</text></g><path d="M20,206.8594 L84.4429,206.8594 L84.4429,213.9922 L74.4429,223.9922 L20,223.9922 L20,206.8594" fill="#EEEEEE" style="stroke:#000000;stroke-width:1.5;"/><rect fill="none" height="46.2656" style="stroke:#000000;stroke-width:1.5;" width="262.6479" x="20" y="206.8594"/><text fill="#000000" font-family="sans-serif" font-size="13" font-weight="700" lengthAdjust="spacing" textLength="19.4429" x="35" y="219.9263">alt</text><text fill="#000000" font-family="sans-serif" font-size="11" font-weight="700" lengthAdjust="spacing" textLength="103.3506" x="99.4429" y="219.0698">[invalid request]</text><g class="message" data-entity-1="part2" data-entity-2="part1" data-source-line="16" id="msg3"><polygon fill="#181818" points="64.2651,241.125,54.2651,245.125,64.2651,249.125,60.2651,245.125" style="stroke:#181818;stroke-width:1;"/><line style="stroke:#181818;stroke-width:1;stroke-dasharray:2,2;" x1="58.2651" x2="201.8154" y1="245.125" y2="245.125"/><text fill="#000000" font-family="sans-serif" font-size="13" lengthAdjust="spacing" textLength="107.4722" x="70.2651" y="240.0591">400 BadRequest</text></g><g class="message" data-entity-1="part2" data-entity-2="part3" data-source-line="19" id="msg4"><polygon fill="#181818" points="404.2612,277.2578,414.2612,281.2578,404.2612,285.2578,408.2612,281.2578" style="stroke:#181818;stroke-width:1;"/><line style="stroke:#181818;stroke-width:1;" x1="202.8154" x2="410.2612" y1="281.2578" y2="281.2578"/><text fill="#000000" font-family="sans-serif" font-size="13" lengthAdjust="spacing" textLength="189.4458" x="209.8154" y="276.1919">CreateBookingInput(request)</text></g><g class="message" data-entity-1="part3" data-entity-2="part2" data-source-line="20" id="msg5"><polygon fill="#181818" points="213.8154,306.3906,203.8154,310.3906,213.8154,314.3906,209.8154,310.3906" style="stroke:#181818;stroke-width:1;"/><line style="stroke:#181818;stroke-width:1;stroke-dasharray:2,2;" x1="207.8154" x2="415.2612" y1="310.3906" y2="310.3906"/><text fill="#000000" font-family="sans-serif" font-size="13" lengthAdjust="spacing" textLength="86.1187" x="219.8154" y="305.3247">BookingInput</text></g><g class="message" data-entity-1="part2" data-entity-2="part4" data-source-line="22" id="msg6"><polygon fill="#181818" points="526.7158,335.5234,536.7158,339.5234,526.7158,343.5234,530.7158,339.5234" style="stroke:#181818;stroke-width:1;"/><line style="stroke:#181818;stroke-width:1;" x1="202.8154" x2="532.7158" y1="339.5234" y2="339.5234"/><text fill="#000000" font-family="sans-serif" font-size="13" lengthAdjust="spacing" textLength="217.4897" x="209.8154" y="334.4575">BookTrainingSessionAsync(input)</text></g><path d="M10,354.5234 L74.4429,354.5234 L74.4429,361.6563 L64.4429,371.6563 L10,371.6563 L10,354.5234" fill="#EEEEEE" style="stroke:#000000;stroke-width:1.5;"/><rect fill="none" height="660.5313" style="stroke:#000000;stroke-width:1.5;" width="1110.6089" x="10" y="354.5234"/><text fill="#000000" font-family="sans-serif" font-size="13" font-weight="700" lengthAdjust="spacing" textLength="19.4429" x="25" y="367.5903">alt</text><text fill="#000000" font-family="sans-serif" font-size="11" font-weight="700" lengthAdjust="spacing" textLength="187.9937" x="89.4429" y="366.7339">[session full / already booked]</text><g class="message" data-entity-1="part4" data-entity-2="part6" data-source-line="25" id="msg7"><polygon fill="#181818" points="902.1401,388.7891,912.1401,392.7891,902.1401,396.7891,906.1401,392.7891" style="stroke:#181818;stroke-width:1;"/><line style="stroke:#181818;stroke-width:1;" x1="538.7158" x2="908.1401" y1="392.7891" y2="392.7891"/><text fill="#000000" font-family="sans-serif" font-size="13" lengthAdjust="spacing" textLength="122.2178" x="545.7158" y="387.7231">GetById(sessionId)</text></g><g class="message" data-entity-1="part6" data-entity-2="part7" data-source-line="26" id="msg8"><polygon fill="#181818" points="1055.3213,417.9219,1065.3213,421.9219,1055.3213,425.9219,1059.3213,421.9219" style="stroke:#181818;stroke-width:1;"/><line style="stroke:#181818;stroke-width:1;" x1="914.1401" x2="1061.3213" y1="421.9219" y2="421.9219"/><text fill="#000000" font-family="sans-serif" font-size="13" lengthAdjust="spacing" textLength="88.2134" x="921.1401" y="416.856">Fetch session</text></g><g class="message" data-entity-1="part7" data-entity-2="part6" data-source-line="27" id="msg9"><polygon fill="#181818" points="925.1401,447.0547,915.1401,451.0547,925.1401,455.0547,921.1401,451.0547" style="stroke:#181818;stroke-width:1;"/><line style="stroke:#181818;stroke-width:1;stroke-dasharray:2,2;" x1="919.1401" x2="1066.3213" y1="451.0547" y2="451.0547"/><text fill="#000000" font-family="sans-serif" font-size="13" lengthAdjust="spacing" textLength="29.2817" x="931.1401" y="445.9888">data</text></g><g class="message" data-entity-1="part6" data-entity-2="part4" data-source-line="28" id="msg10"><polygon fill="#181818" points="549.7158,476.1875,539.7158,480.1875,549.7158,484.1875,545.7158,480.1875" style="stroke:#181818;stroke-width:1;"/><line style="stroke:#181818;stroke-width:1;stroke-dasharray:2,2;" x1="543.7158" x2="913.1401" y1="480.1875" y2="480.1875"/><text fill="#000000" font-family="sans-serif" font-size="13" lengthAdjust="spacing" textLength="93.2979" x="555.7158" y="475.1216">domain model</text></g><g class="message" data-entity-1="part4" data-entity-2="part2" data-source-line="30" id="msg11"><polygon fill="#181818" points="213.8154,505.3203,203.8154,509.3203,213.8154,513.3203,209.8154,509.3203" style="stroke:#181818;stroke-width:1;"/><line style="stroke:#181818;stroke-width:1;stroke-dasharray:2,2;" x1="207.8154" x2="537.7158" y1="509.3203" y2="509.3203"/><text fill="#000000" font-family="sans-serif" font-size="13" lengthAdjust="spacing" textLength="49.3149" x="219.8154" y="504.2544">Conflict</text></g><g class="message" data-entity-1="part2" data-entity-2="part1" data-source-line="31" id="msg12"><polygon fill="#181818" points="64.2651,534.4531,54.2651,538.4531,64.2651,542.4531,60.2651,538.4531" style="stroke:#181818;stroke-width:1;"/><line style="stroke:#181818;stroke-width:1;stroke-dasharray:2,2;" x1="58.2651" x2="201.8154" y1="538.4531" y2="538.4531"/><text fill="#000000" font-family="sans-serif" font-size="13" lengthAdjust="spacing" textLength="78.2603" x="70.2651" y="533.3872">409 Conflict</text></g><line style="stroke:#000000;stroke-width:1;stroke-dasharray:2,2;" x1="10" x2="1120.6089" y1="547.4531" y2="547.4531"/><text fill="#000000" font-family="sans-serif" font-size="11" font-weight="700" lengthAdjust="spacing" textLength="58.0293" x="15" y="557.6636">[success]</text><g class="message" data-entity-1="part4" data-entity-2="part6" data-source-line="33" id="msg13"><polygon fill="#181818" points="902.1401,578.3906,912.1401,582.3906,902.1401,586.3906,906.1401,582.3906" style="stroke:#181818;stroke-width:1;"/><line style="stroke:#181818;stroke-width:1;" x1="538.7158" x2="908.1401" y1="582.3906" y2="582.3906"/><text fill="#000000" font-family="sans-serif" font-size="13" lengthAdjust="spacing" textLength="122.2178" x="545.7158" y="577.3247">GetById(sessionId)</text></g><g class="message" data-entity-1="part6" data-entity-2="part7" data-source-line="34" id="msg14"><polygon fill="#181818" points="1055.3213,607.5234,1065.3213,611.5234,1055.3213,615.5234,1059.3213,611.5234" style="stroke:#181818;stroke-width:1;"/><line style="stroke:#181818;stroke-width:1;" x1="914.1401" x2="1061.3213" y1="611.5234" y2="611.5234"/><text fill="#000000" font-family="sans-serif" font-size="13" lengthAdjust="spacing" textLength="88.2134" x="921.1401" y="606.4575">Fetch session</text></g><g class="message" data-entity-1="part7" data-entity-2="part6" data-source-line="35" id="msg15"><polygon fill="#181818" points="925.1401,636.6563,915.1401,640.6563,925.1401,644.6563,921.1401,640.6563" style="stroke:#181818;stroke-width:1;"/><line style="stroke:#181818;stroke-width:1;stroke-dasharray:2,2;" x1="919.1401" x2="1066.3213" y1="640.6563" y2="640.6563"/><text fill="#000000" font-family="sans-serif" font-size="13" lengthAdjust="spacing" textLength="29.2817" x="931.1401" y="635.5903">data</text></g><g class="message" data-entity-1="part6" data-entity-2="part4" data-source-line="36" id="msg16"><polygon fill="#181818" points="549.7158,665.7891,539.7158,669.7891,549.7158,673.7891,545.7158,669.7891" style="stroke:#181818;stroke-width:1;"/><line style="stroke:#181818;stroke-width:1;stroke-dasharray:2,2;" x1="543.7158" x2="913.1401" y1="669.7891" y2="669.7891"/><text fill="#000000" font-family="sans-serif" font-size="13" lengthAdjust="spacing" textLength="93.2979" x="555.7158" y="664.7231">domain model</text></g><g class="message" data-entity-1="part4" data-entity-2="part5" data-source-line="38" id="msg17"><polygon fill="#181818" points="695.0396,694.9219,705.0396,698.9219,695.0396,702.9219,699.0396,698.9219" style="stroke:#181818;stroke-width:1;"/><line style="stroke:#181818;stroke-width:1;" x1="538.7158" x2="701.0396" y1="698.9219" y2="698.9219"/><text fill="#000000" font-family="sans-serif" font-size="13" lengthAdjust="spacing" textLength="138.3916" x="545.7158" y="693.856">bookSpot(memberId)</text></g><g class="message" data-entity-1="part5" data-entity-2="part4" data-source-line="39" id="msg18"><polygon fill="#181818" points="549.7158,724.0547,539.7158,728.0547,549.7158,732.0547,545.7158,728.0547" style="stroke:#181818;stroke-width:1;"/><line style="stroke:#181818;stroke-width:1;stroke-dasharray:2,2;" x1="543.7158" x2="706.0396" y1="728.0547" y2="728.0547"/><text fill="#000000" font-family="sans-serif" font-size="13" lengthAdjust="spacing" textLength="106.3105" x="555.7158" y="722.9888">updated session</text></g><g class="message" data-entity-1="part4" data-entity-2="part6" data-source-line="41" id="msg19"><polygon fill="#181818" points="902.1401,753.1875,912.1401,757.1875,902.1401,761.1875,906.1401,757.1875" style="stroke:#181818;stroke-width:1;"/><line style="stroke:#181818;stroke-width:1;" x1="538.7158" x2="908.1401" y1="757.1875" y2="757.1875"/><text fill="#000000" font-family="sans-serif" font-size="13" lengthAdjust="spacing" textLength="90.1748" x="545.7158" y="752.1216">Save(session)</text></g><g class="message" data-entity-1="part6" data-entity-2="part7" data-source-line="42" id="msg20"><polygon fill="#181818" points="1055.3213,782.3203,1065.3213,786.3203,1055.3213,790.3203,1059.3213,786.3203" style="stroke:#181818;stroke-width:1;"/><line style="stroke:#181818;stroke-width:1;" x1="914.1401" x2="1061.3213" y1="786.3203" y2="786.3203"/><text fill="#000000" font-family="sans-serif" font-size="13" lengthAdjust="spacing" textLength="90.6572" x="921.1401" y="781.2544">Save changes</text></g><g class="message" data-entity-1="part7" data-entity-2="part6" data-source-line="43" id="msg21"><polygon fill="#181818" points="925.1401,811.4531,915.1401,815.4531,925.1401,819.4531,921.1401,815.4531" style="stroke:#181818;stroke-width:1;"/><line style="stroke:#181818;stroke-width:1;stroke-dasharray:2,2;" x1="919.1401" x2="1066.3213" y1="815.4531" y2="815.4531"/><text fill="#000000" font-family="sans-serif" font-size="13" lengthAdjust="spacing" textLength="88.4482" x="931.1401" y="810.3872">affected rows</text></g><g class="message" data-entity-1="part6" data-entity-2="part4" data-source-line="44" id="msg22"><polygon fill="#181818" points="549.7158,840.5859,539.7158,844.5859,549.7158,848.5859,545.7158,844.5859" style="stroke:#181818;stroke-width:1;"/><line style="stroke:#181818;stroke-width:1;stroke-dasharray:2,2;" x1="543.7158" x2="913.1401" y1="844.5859" y2="844.5859"/><text fill="#000000" font-family="sans-serif" font-size="13" lengthAdjust="spacing" textLength="37.064" x="555.7158" y="839.52">result</text></g><path d="M20,859.5859 L84.4429,859.5859 L84.4429,866.7188 L74.4429,876.7188 L20,876.7188 L20,859.5859" fill="#EEEEEE" style="stroke:#000000;stroke-width:1.5;"/><rect fill="none" height="148.4688" style="stroke:#000000;stroke-width:1.5;" width="589.8325" x="20" y="859.5859"/><text fill="#000000" font-family="sans-serif" font-size="13" font-weight="700" lengthAdjust="spacing" textLength="19.4429" x="35" y="872.6528">alt</text><text fill="#000000" font-family="sans-serif" font-size="11" font-weight="700" lengthAdjust="spacing" textLength="58.0293" x="99.4429" y="871.7964">[success]</text><g class="message" data-entity-1="part4" data-entity-2="part2" data-source-line="47" id="msg23"><polygon fill="#181818" points="213.8154,893.8516,203.8154,897.8516,213.8154,901.8516,209.8154,897.8516" style="stroke:#181818;stroke-width:1;"/><line style="stroke:#181818;stroke-width:1;stroke-dasharray:2,2;" x1="207.8154" x2="537.7158" y1="897.8516" y2="897.8516"/><text fill="#000000" font-family="sans-serif" font-size="13" lengthAdjust="spacing" textLength="51.7334" x="219.8154" y="892.7856">Created</text></g><g class="message" data-entity-1="part2" data-entity-2="part1" data-source-line="48" id="msg24"><polygon fill="#181818" points="64.2651,922.9844,54.2651,926.9844,64.2651,930.9844,60.2651,926.9844" style="stroke:#181818;stroke-width:1;"/><line style="stroke:#181818;stroke-width:1;stroke-dasharray:2,2;" x1="58.2651" x2="201.8154" y1="926.9844" y2="926.9844"/><text fill="#000000" font-family="sans-serif" font-size="13" lengthAdjust="spacing" textLength="80.6787" x="70.2651" y="921.9185">201 Created</text></g><line style="stroke:#000000;stroke-width:1;stroke-dasharray:2,2;" x1="20" x2="609.8325" y1="935.9844" y2="935.9844"/><text fill="#000000" font-family="sans-serif" font-size="11" font-weight="700" lengthAdjust="spacing" textLength="50.5205" x="25" y="946.1948">[failure]</text><g class="message" data-entity-1="part4" data-entity-2="part2" data-source-line="50" id="msg25"><polygon fill="#181818" points="213.8154,966.9219,203.8154,970.9219,213.8154,974.9219,209.8154,970.9219" style="stroke:#181818;stroke-width:1;"/><line style="stroke:#181818;stroke-width:1;stroke-dasharray:2,2;" x1="207.8154" x2="537.7158" y1="970.9219" y2="970.9219"/><text fill="#000000" font-family="sans-serif" font-size="13" lengthAdjust="spacing" textLength="38.9175" x="219.8154" y="965.856">Failed</text></g><g class="message" data-entity-1="part2" data-entity-2="part1" data-source-line="51" id="msg26"><polygon fill="#181818" points="64.2651,996.0547,54.2651,1000.0547,64.2651,1004.0547,60.2651,1000.0547" style="stroke:#181818;stroke-width:1;"/><line style="stroke:#181818;stroke-width:1;stroke-dasharray:2,2;" x1="58.2651" x2="201.8154" y1="1000.0547" y2="1000.0547"/><text fill="#000000" font-family="sans-serif" font-size="13" lengthAdjust="spacing" textLength="107.4722" x="70.2651" y="994.9888">400 BadRequest</text></g><?plantuml-src pPF1RXen48RlVeeHf-M0e54lpI5I5qJ5eMgKHRqRUqYi67jZUwbudxv9NwnZhnTsLv3qM2GaU_tDF__Cs445ZL3QLmvRz-UtKURPrznxnhW8ri5IApI1iPgxe8IgkGamAQrz9N1fJN1MQtGJu1ukso6zCNKJradkbC2ylgfPeJigWOdBwo6tTLoP17glh85YPG_qPPeYslMx0KzOMw_ENkAMIHxuZdk4oICwhtn0aosiIiRQ5i3ieLSXtCFZZseBSrwh-QwrJZth0MFy9zUAyY1yjn9r5MZ9k0wWp36UWCEt1drWGB--JDHf3Tp3vyK2IYwVCef6ZbFcrXAxT4WfSbVJ28gSOiewQZOssSV7qdaQcHfrzQi_6L6e63TbgIwVvxDlj8OvS4r-v0bYhr2cAZj1qevJ8E5l6ChJHXOvTYEd2KodHArAOjOOn4kddexfy-oY4MVPYneOb-bwm25EW0qzZ3j1cxrMugDvVBc0gEa2-KO8ilR_rVUGtmPHSGHLRKDnmCCENUSYdmyLcphUMNdsSwEmYX-ng-fAJV4On0itp-YlbCJtUnGnYxE__AtQ7Ff6XzP0kb-zJhy_oVGGv1cyDSoxnQS1c-Qvvqet3Z_EiYRm7vACNd3AGw-O_dy1?></g></svg>